# ProBuilder 5.0.6
# https://unity3d.com/unity/features/worldbuilding/probuilder
# 17/6/2023 7:20:26 p. m.

mtllib ./Pointer.mtl
o Pointer

g Velocity Pointer
v -0.3535534 0.3535535 -0.5000001
v -0.3535534 -0.3535534 -0.5000001
v 0 -5.960464E-08 0.5000001
v 0 5.960464E-08 -0.5000001
v 0.3535534 -0.3535533 -0.5000001
v 0.3535534 0.3535535 -0.5

vt 0 0
vt 1.414214 0
vt 0.7071068 1.224745
vt -0.5 0
vt 2.185569E-08 0.5
vt 0.5 -4.371139E-08
vt -5.96244E-09 -0.5

vn -0.942809 -5.619578E-08 0.3333333
vn 8.42937E-08 8.42937E-08 -1
vn 2.327709E-08 -0.9428091 0.3333332
vn 0.942809 -5.61958E-08 0.3333333
vn -5.619582E-08 0.942809 0.3333335

usemtl PointerMaterial
f 1/1/1 2/2/1 3/3/1
f 4/1/2 2/5/2 1/4/2
f 2/1/3 5/2/3 3/3/3
f 4/1/2 5/6/2 2/5/2
f 5/1/4 6/2/4 3/3/4
f 4/1/2 6/7/2 5/6/2
f 6/1/5 1/2/5 3/3/5
f 4/1/2 1/4/2 6/7/2

